<?xml version="1.0" encoding="utf-8"?>
<!-- Generator: Adobe Illustrator 24.1.1, SVG Export Plug-In . SVG Version: 6.00 Build 0)  -->
<svg version="1.1" id="Capa_1" xmlns="http://www.w3.org/2000/svg" xmlns:xlink="http://www.w3.org/1999/xlink" x="0px" y="0px"
	 viewBox="0 0 800 800" style="enable-background:new 0 0 800 800;" xml:space="preserve">
<style type="text/css">
	.st0{fill:#A67C52;}
	.st1{opacity:0.5;fill:#754C24;}
	.st2{opacity:0.5;fill:#8C6239;}
</style>
<circle class="st0" cx="400" cy="406" r="300"/>
<circle class="st0" cx="660" cy="223" r="80"/>
<circle class="st0" cx="140" cy="223" r="80"/>
<circle class="st1" cx="140" cy="223" r="40"/>
<circle class="st1" cx="660" cy="223" r="40"/>
<circle cx="550" cy="391" r="30"/>
<circle cx="250" cy="391" r="30"/>
<circle class="st2" cx="400" cy="556" r="150"/>
<ellipse cx="400" cy="489" rx="50" ry="35"/>
<path d="M399.98,589.98c6.16-0.1,14.89-0.5,25.21-1.91c34.87-4.78,52.57-16.27,54.62-13.4c2.52,3.52-19.42,27.68-52.52,36.37
	c-4.59,1.21-26.05,6.49-52.52,0c-33.49-8.22-56.92-30.86-54.62-34.46c1.83-2.86,19.31,7.02,54.62,11.49
	C385.12,589.37,393.83,589.82,399.98,589.98z"/>
<path d="M159,357"/>
<g>
</g>
<g>
</g>
<g>
</g>
<g>
</g>
<g>
</g>
<g>
</g>
<g>
</g>
<g>
</g>
<g>
</g>
<g>
</g>
<g>
</g>
<g>
</g>
<g>
</g>
<g>
</g>
<g>
</g>
</svg>
